<svg width="35" height="35" viewBox="0 0 35 35" fill="none" xmlns="http://www.w3.org/2000/svg">
<path d="M17.5 23.3333C17.1592 23.334 16.829 23.2153 16.5666 22.9979L7.81662 15.7062C7.51881 15.4587 7.33152 15.103 7.29597 14.7174C7.26041 14.3318 7.3795 13.9478 7.62704 13.65C7.87457 13.3522 8.23028 13.1649 8.6159 13.1293C9.00152 13.0938 9.38547 13.2129 9.68329 13.4604L17.5 19.9937L25.3166 13.6937C25.4658 13.5726 25.6374 13.4821 25.8217 13.4276C26.0059 13.373 26.1991 13.3553 26.3902 13.3757C26.5813 13.396 26.7665 13.4539 26.9351 13.546C27.1038 13.6381 27.2525 13.7627 27.3729 13.9125C27.5064 14.0624 27.6076 14.2384 27.67 14.4292C27.7324 14.6201 27.7547 14.8218 27.7355 15.0216C27.7164 15.2215 27.6561 15.4153 27.5586 15.5908C27.4611 15.7663 27.3283 15.9198 27.1687 16.0417L18.4187 23.0854C18.1488 23.2685 17.8253 23.3557 17.5 23.3333Z" fill="#6D87A8"/>
</svg>
