<svg width="1440" height="437" viewBox="0 0 1440 437" fill="none" xmlns="http://www.w3.org/2000/svg">
<path fill-rule="evenodd" clip-rule="evenodd" d="M0 0L60 18.9189C120 36.5766 240 73.1532 360 90.8108C480 109.73 600 109.73 720 90.8108C840 73.1532 960 36.5766 1080 36.5766C1200 36.5766 1320 73.1532 1380 90.8108L1440 109.73V436.396H1380C1320 436.396 1200 436.396 1080 436.396C960 436.396 840 436.396 720 436.396C600 436.396 480 436.396 360 436.396C240 436.396 120 436.396 60 436.396H0V0Z" fill="#D2DFF0"/>
</svg>
