<svg width="47" height="49" viewBox="0 0 47 49" fill="none" xmlns="http://www.w3.org/2000/svg">
<path d="M41.8139 3.95835V2.24443C41.8139 1.02019 40.7982 0 39.4862 0H33.6458C32.3761 0 31.3181 1.02019 31.3181 2.24443V3.46866H7.57559C4.52843 3.46866 0 5.42743 0 10.7732V40.9302C0 43.8684 2.03144 48.2348 7.57559 48.2348H38.8514C41.8985 48.2348 46.427 46.276 46.427 40.9302V10.7732C46.427 8.4064 45.1573 5.18259 41.8139 3.95835Z" fill="white"/>
<path d="M38.0897 24.4847H34.2808C33.519 24.4847 32.8841 25.0968 32.8841 25.8314C32.8841 26.5659 33.519 27.178 34.2808 27.178H38.0897C38.8515 27.2188 39.4863 26.6067 39.5287 25.8722C39.571 25.1376 38.9362 24.5255 38.1744 24.4847C38.132 24.4847 38.132 24.4847 38.0897 24.4847ZM32.0377 22.0771C32.334 22.7708 33.1804 23.0564 33.8575 22.7708L37.3703 21.2609C38.0897 20.9753 38.386 20.1999 38.0897 19.5062C37.7935 18.8124 36.9894 18.5268 36.2699 18.8124H36.2276L32.7149 20.3223C32.0377 20.608 31.7415 21.3833 32.0377 22.0771ZM31.6145 18.8124L34.1961 16.0783C34.704 15.5478 34.6617 14.6909 34.1115 14.2012C33.5613 13.7115 32.6725 13.7523 32.1647 14.2828L29.5831 17.0169C29.0752 17.5474 29.1175 18.4044 29.6677 18.894C30.2602 19.4246 31.1066 19.3838 31.6145 18.8124ZM27.9325 35.5436C27.6786 34.8499 26.9168 34.4418 26.1973 34.6867C25.2662 34.9723 24.2505 35.1355 23.2348 35.1355C17.9022 35.1355 13.5854 30.9731 13.5854 25.8314C13.5854 20.6896 17.9022 16.5272 23.2348 16.5272C24.2505 16.5272 25.2662 16.6904 26.1973 16.9761C26.9168 17.2209 27.7209 16.8129 27.9325 16.1191L29.1175 12.6097C29.3714 11.9159 28.9482 11.1406 28.2288 10.9365C26.6205 10.4468 24.9277 10.1612 23.1925 10.1612C14.2203 10.1612 6.94092 17.1801 6.94092 25.8314C6.94092 34.4826 14.2203 41.5015 23.1925 41.5015C24.9277 41.5015 26.6205 41.2159 28.2288 40.7262C28.9482 40.4813 29.3714 39.7468 29.1175 39.0531L27.9325 35.5436ZM31.6145 32.8503C31.1066 32.3198 30.2179 32.279 29.6677 32.8095C29.1175 33.2992 29.0752 34.1153 29.5831 34.6458L32.1647 37.38C32.6725 37.9105 33.5613 37.9513 34.1115 37.4208C34.6617 36.9311 34.704 36.1149 34.1961 35.5844L31.6145 32.8503ZM37.3703 30.4427L33.8575 28.9328C33.1381 28.6471 32.334 28.9736 32.0377 29.6673C31.7415 30.3202 32.0377 31.0956 32.7149 31.3812L36.2276 32.8911C36.947 33.1768 37.7511 32.8503 38.0474 32.1566C38.3437 31.5036 38.0474 30.7691 37.3703 30.4427Z" fill="#6D87A8"/>
</svg>
