<svg width="36" height="37" viewBox="0 0 36 37" fill="none" xmlns="http://www.w3.org/2000/svg">
<path d="M31.8336 3.00767V1.70538C31.8336 0.775172 31.0603 0 30.0615 0H25.6151C24.6485 0 23.843 0.775172 23.843 1.70538V2.63558H5.76743C3.44757 2.63558 0 4.12391 0 8.18581V31.0999C0 33.3324 1.54657 36.6501 5.76743 36.6501H29.5782C31.8981 36.6501 35.3456 35.1618 35.3456 31.0999V8.18581C35.3456 6.38742 34.379 3.93787 31.8336 3.00767Z" fill="#6D87A8"/>
<path d="M28.9983 18.6042H26.0985C25.5185 18.6042 25.0352 19.0693 25.0352 19.6274C25.0352 20.1855 25.5185 20.6506 26.0985 20.6506H28.9983C29.5783 20.6816 30.0616 20.2165 30.0938 19.6584C30.126 19.1003 29.6427 18.6352 29.0627 18.6042C29.0305 18.6042 29.0305 18.6042 28.9983 18.6042ZM24.3908 16.7748C24.6163 17.3019 25.2607 17.5189 25.7763 17.3019L28.4506 16.1546C28.9983 15.9376 29.2238 15.3484 28.9983 14.8213C28.7728 14.2942 28.1606 14.0772 27.6128 14.2942H27.5806L24.9063 15.4415C24.3908 15.6585 24.1653 16.2476 24.3908 16.7748ZM24.0686 14.2942L26.034 12.2167C26.4207 11.8137 26.3885 11.1625 25.9696 10.7904C25.5507 10.4183 24.8741 10.4494 24.4875 10.8524L22.522 12.9299C22.1354 13.333 22.1676 13.9841 22.5865 14.3562C23.0376 14.7593 23.682 14.7283 24.0686 14.2942ZM21.2654 27.007C21.0721 26.4799 20.4921 26.1698 19.9444 26.3559C19.2356 26.5729 18.4623 26.697 17.689 26.697C13.6292 26.697 10.3428 23.5342 10.3428 19.6274C10.3428 15.7205 13.6292 12.5578 17.689 12.5578C18.4623 12.5578 19.2356 12.6819 19.9444 12.8989C20.4921 13.0849 21.1043 12.7749 21.2654 12.2478L22.1676 9.58116C22.3609 9.05404 22.0387 8.46491 21.491 8.30988C20.2666 7.9378 18.9778 7.72075 17.6568 7.72075C10.8261 7.72075 5.28418 13.0539 5.28418 19.6274C5.28418 26.2008 10.8261 31.534 17.6568 31.534C18.9778 31.534 20.2666 31.317 21.491 30.9449C22.0387 30.7588 22.3609 30.2007 22.1676 29.6736L21.2654 27.007ZM24.0686 24.9606C23.682 24.5575 23.0053 24.5265 22.5865 24.9296C22.1676 25.3016 22.1354 25.9218 22.522 26.3249L24.4875 28.4023C24.8741 28.8054 25.5507 28.8364 25.9696 28.4333C26.3885 28.0612 26.4207 27.4411 26.034 27.038L24.0686 24.9606ZM28.4506 23.1312L25.7763 21.9839C25.2285 21.7669 24.6163 22.0149 24.3908 22.542C24.1653 23.0381 24.3908 23.6273 24.9063 23.8443L27.5806 24.9916C28.1284 25.2086 28.7405 24.9606 28.9661 24.4334C29.1916 23.9373 28.9661 23.3792 28.4506 23.1312Z" fill="#FFF8F5"/>
</svg>
