<svg width="1440" height="876" viewBox="0 0 1440 876" fill="none" xmlns="http://www.w3.org/2000/svg">
<path d="M0 98.1406H1440V1053H0V98.1406Z" fill="#FFF8F5"/>
<path fill-rule="evenodd" clip-rule="evenodd" d="M0 13.7756L60 8.95179C120 4.12799 240 -5.51961 360 4.12799C480 13.7756 600 42.7184 720 47.5422C840 52.366 960 33.0708 1080 23.4232C1200 13.7756 1320 13.7756 1380 13.7756H1440V187.432H1380C1320 187.432 1200 187.432 1080 187.432C960 187.432 840 187.432 720 187.432C600 187.432 480 187.432 360 187.432C240 187.432 120 187.432 60 187.432H0V13.7756Z" fill="#FFF8F5"/>
<path d="M0 98.1406H1440V1053H0V98.1406Z" stroke="black"/>
<path fill-rule="evenodd" clip-rule="evenodd" d="M0 13.7756L60 8.95179C120 4.12799 240 -5.51961 360 4.12799C480 13.7756 600 42.7184 720 47.5422C840 52.366 960 33.0708 1080 23.4232C1200 13.7756 1320 13.7756 1380 13.7756H1440V187.432H1380C1320 187.432 1200 187.432 1080 187.432C960 187.432 840 187.432 720 187.432C600 187.432 480 187.432 360 187.432C240 187.432 120 187.432 60 187.432H0V13.7756Z" stroke="black"/>
</svg>
