<svg width="49" height="51" viewBox="0 0 49 51" fill="none" xmlns="http://www.w3.org/2000/svg">
<path d="M14.21 0H34.79C42.63 0 49 6.63 49 14.79V36.21C49 40.1326 47.5029 43.8944 44.838 46.6681C42.1731 49.4418 38.5587 51 34.79 51H14.21C6.37 51 0 44.37 0 36.21V14.79C0 10.8674 1.49712 7.10555 4.16201 4.33189C6.8269 1.55823 10.4413 0 14.21 0ZM13.72 5.1C11.3808 5.1 9.13739 6.06718 7.48332 7.78876C5.82925 9.51034 4.9 11.8453 4.9 14.28V36.72C4.9 41.7945 8.8445 45.9 13.72 45.9H35.28C37.6192 45.9 39.8626 44.9328 41.5167 43.2112C43.1708 41.4897 44.1 39.1547 44.1 36.72V14.28C44.1 9.2055 40.1555 5.1 35.28 5.1H13.72ZM37.3625 8.925C38.1747 8.925 38.9537 9.26083 39.528 9.8586C40.1023 10.4564 40.425 11.2671 40.425 12.1125C40.425 12.9579 40.1023 13.7686 39.528 14.3664C38.9537 14.9642 38.1747 15.3 37.3625 15.3C36.5503 15.3 35.7713 14.9642 35.197 14.3664C34.6227 13.7686 34.3 12.9579 34.3 12.1125C34.3 11.2671 34.6227 10.4564 35.197 9.8586C35.7713 9.26083 36.5503 8.925 37.3625 8.925ZM24.5 12.75C27.7489 12.75 30.8647 14.0933 33.1621 16.4844C35.4594 18.8755 36.75 22.1185 36.75 25.5C36.75 28.8815 35.4594 32.1245 33.1621 34.5156C30.8647 36.9067 27.7489 38.25 24.5 38.25C21.2511 38.25 18.1353 36.9067 15.8379 34.5156C13.5406 32.1245 12.25 28.8815 12.25 25.5C12.25 22.1185 13.5406 18.8755 15.8379 16.4844C18.1353 14.0933 21.2511 12.75 24.5 12.75ZM24.5 17.85C22.5507 17.85 20.6812 18.656 19.3028 20.0906C17.9244 21.5253 17.15 23.4711 17.15 25.5C17.15 27.5289 17.9244 29.4747 19.3028 30.9094C20.6812 32.344 22.5507 33.15 24.5 33.15C26.4493 33.15 28.3188 32.344 29.6972 30.9094C31.0756 29.4747 31.85 27.5289 31.85 25.5C31.85 23.4711 31.0756 21.5253 29.6972 20.0906C28.3188 18.656 26.4493 17.85 24.5 17.85Z" fill="white"/>
</svg>
