<svg width="552" height="490" viewBox="0 0 552 490" fill="none" xmlns="http://www.w3.org/2000/svg">
<g filter="url(#filter0_d)">
<path d="M382.76 459.723H149.239C141.23 459.723 133.768 455.414 129.764 448.479L13.0035 246.244C8.99848 239.308 8.99848 230.691 13.0035 223.755L129.764 21.5203C133.768 14.5847 141.231 10.2758 149.239 10.2758H382.759C390.768 10.2758 398.23 14.5847 402.235 21.5203L452.024 107.758C454.094 111.344 452.866 115.928 449.28 117.998C445.697 120.069 441.111 118.841 439.04 115.255L389.252 29.0166C387.916 26.7048 385.428 25.2685 382.759 25.2685H149.239C146.57 25.2685 144.082 26.7048 142.747 29.0166L25.9872 231.251C24.6529 233.563 24.6529 236.436 25.9872 238.748L142.747 440.982C144.082 443.294 146.57 444.73 149.239 444.73H382.759C385.428 444.73 387.916 443.294 389.252 440.982L506.011 238.748C507.346 236.436 507.346 233.563 506.011 231.251L454.477 141.993C452.407 138.407 453.635 133.823 457.22 131.753C460.805 129.682 465.392 130.91 467.461 134.496L518.994 223.755C523 230.691 523 239.308 518.994 246.244L402.236 448.479C398.231 455.415 390.768 459.723 382.76 459.723ZM329.138 382.951C324.729 382.951 321.142 379.363 321.142 374.954C321.142 370.546 324.729 366.958 329.138 366.958C333.547 366.958 337.134 370.546 337.134 374.954C337.134 379.363 333.547 382.951 329.138 382.951ZM266 369.236C262.111 369.236 258.223 368.236 254.756 366.233L157.971 310.354C151.035 306.35 146.726 298.887 146.726 290.878V179.122C146.726 171.113 151.035 163.65 157.971 159.645L254.755 103.767C261.691 99.7622 270.309 99.7632 277.244 103.767L374.029 159.646C380.965 163.65 385.273 171.114 385.273 179.122V290.878C385.273 298.887 380.965 306.35 374.029 310.354L340.856 329.506C337.272 331.577 332.685 330.349 330.616 326.763C328.546 323.178 329.774 318.593 333.36 316.523L366.533 297.37C368.844 296.036 370.281 293.548 370.281 290.878V183.449L273.496 239.327V351.085L309.794 330.128C313.378 328.057 317.963 329.286 320.034 332.872C322.104 336.457 320.876 341.042 317.291 343.112L277.244 366.233C273.777 368.236 269.889 369.236 266 369.236V369.236ZM161.719 183.45V290.878C161.719 293.548 163.156 296.036 165.467 297.37L258.504 351.085V239.327L223.279 218.99C219.694 216.92 218.466 212.335 220.536 208.75C222.605 205.165 227.189 203.936 230.776 206.007L266 226.344L362.784 170.465L269.749 116.75C267.438 115.416 264.565 115.415 262.252 116.75L169.216 170.465L206.163 191.796C209.748 193.866 210.976 198.451 208.906 202.037C206.836 205.622 202.249 206.85 198.666 204.78L161.719 183.45ZM183.079 366.485C178.67 366.485 175.083 362.897 175.083 358.488C175.083 354.08 178.67 350.492 183.079 350.492C187.488 350.492 191.075 354.08 191.075 358.488C191.075 362.897 187.488 366.485 183.079 366.485ZM359.123 364.959C354.714 364.959 351.127 361.372 351.127 356.963C351.127 352.554 354.714 348.967 359.123 348.967C363.532 348.967 367.119 352.554 367.119 356.963C367.119 361.372 363.532 364.959 359.123 364.959Z" fill="#E6C5A9"/>
</g>
<defs>
<filter id="filter0_d" x="-0.000259399" y="0.275757" width="551.999" height="489.447" filterUnits="userSpaceOnUse" color-interpolation-filters="sRGB">
<feFlood flood-opacity="0" result="BackgroundImageFix"/>
<feColorMatrix in="SourceAlpha" type="matrix" values="0 0 0 0 0 0 0 0 0 0 0 0 0 0 0 0 0 0 127 0"/>
<feOffset dx="10" dy="10"/>
<feGaussianBlur stdDeviation="10"/>
<feColorMatrix type="matrix" values="0 0 0 0 0 0 0 0 0 0 0 0 0 0 0 0 0 0 0.25 0"/>
<feBlend mode="normal" in2="BackgroundImageFix" result="effect1_dropShadow"/>
<feBlend mode="normal" in="SourceGraphic" in2="effect1_dropShadow" result="shape"/>
</filter>
</defs>
</svg>
