<svg width="32" height="31" viewBox="0 0 32 31" fill="none" xmlns="http://www.w3.org/2000/svg">
<path d="M8.96259 20.096C9.03149 20.096 9.10023 20.0897 9.1679 20.0772L14.7846 18.7887L26.6721 7.2727C27.0373 6.91893 27.3269 6.49895 27.5246 6.03673C27.7222 5.57451 27.8239 5.0791 27.8239 4.5788C27.8239 4.07849 27.7222 3.58309 27.5246 3.12087C27.3269 2.65865 27.0372 2.23867 26.6721 1.88491C26.3069 1.53114 25.8733 1.25052 25.3962 1.05906C24.9191 0.86761 24.4077 0.769071 23.8913 0.769073C23.3748 0.769076 22.8634 0.867621 22.3863 1.05908C21.9092 1.25054 21.4756 1.53117 21.1105 1.88494L9.22297 13.401L7.90209 18.8008L7.89303 18.8416C7.86282 18.9943 7.86777 19.1515 7.90754 19.3021C7.94731 19.4526 8.02091 19.5928 8.12308 19.7127C8.22525 19.8325 8.35348 19.929 8.4986 19.9953C8.64372 20.0615 8.80215 20.096 8.96259 20.096ZM11.0382 14.3823L22.5251 3.25469C22.7046 3.08083 22.9176 2.94292 23.1521 2.84883C23.3866 2.75474 23.6379 2.70632 23.8917 2.70632C24.1455 2.70632 24.3968 2.75474 24.6313 2.84883C24.8658 2.94292 25.0788 3.08083 25.2583 3.25469C25.4377 3.42854 25.5801 3.63494 25.6772 3.86209C25.7743 4.08925 25.8243 4.33271 25.8243 4.57858C25.8243 4.82445 25.7743 5.06791 25.6772 5.29506C25.5801 5.52221 25.4377 5.72861 25.2583 5.90246L13.7715 17.0301L10.1893 17.8525L11.0382 14.3823Z" fill="#6D87A8"/>
<path d="M29.5 22.7656H2.5C2.10232 22.7661 1.72106 22.9193 1.43985 23.1917C1.15865 23.4641 1.00046 23.8335 1 24.2188V28.5781C1.00046 28.9634 1.15865 29.3327 1.43985 29.6051C1.72106 29.8776 2.10232 30.0308 2.5 30.0312H29.5C29.8977 30.0308 30.2789 29.8776 30.5601 29.6051C30.8414 29.3327 30.9995 28.9634 31 28.5781V24.2188C30.9995 23.8335 30.8414 23.4641 30.5601 23.1917C30.2789 22.9193 29.8977 22.7661 29.5 22.7656ZM29 28.0938H3V24.7031H29V28.0938Z" fill="#6D87A8"/>
</svg>
