<svg width="993" height="883" viewBox="0 0 993 883" fill="none" xmlns="http://www.w3.org/2000/svg">
<path d="M97.6166 512.064C108.561 512.064 117.393 513.12 124.113 515.232C131.025 517.152 137.745 519.936 144.273 523.584C146.385 524.736 148.209 525.696 149.745 526.464C151.473 527.232 152.913 527.616 154.065 527.616C155.793 527.616 157.137 526.656 158.097 524.736C159.057 522.624 159.825 519.36 160.401 514.944H167.025C166.065 528.768 165.585 552.192 165.585 585.216H158.961C158.193 574.272 155.697 563.808 151.473 553.824C147.249 543.84 141.489 535.68 134.193 529.344C126.897 523.008 118.449 519.84 108.849 519.84C100.017 519.84 92.9126 522.24 87.5366 527.04C82.1606 531.648 79.4726 538.176 79.4726 546.624C79.4726 553.152 80.9126 558.816 83.7926 563.616C86.6726 568.416 90.8966 573.12 96.4646 577.728C102.033 582.144 111.153 588.768 123.825 597.6C124.977 598.176 126.033 598.848 126.993 599.616C128.145 600.384 129.201 601.152 130.161 601.92C140.721 609.216 149.169 615.744 155.505 621.504C161.841 627.072 166.929 633.6 170.769 641.088C174.801 648.576 176.817 657.216 176.817 667.008C176.817 679.488 173.265 690.048 166.161 698.688C159.249 707.136 149.841 713.472 137.937 717.696C126.033 721.92 112.881 724.032 98.4806 724.032C86.7686 724.032 76.9766 723.072 69.1046 721.152C61.4246 719.232 54.2246 716.64 47.5046 713.376C43.2806 710.688 40.0166 709.344 37.7126 709.344C35.9846 709.344 34.6406 710.4 33.6806 712.512C32.7206 714.432 31.9526 717.6 31.3766 722.016H24.7526C25.5206 708.96 25.9046 681.12 25.9046 638.496H32.5286C33.8726 661.344 38.6726 679.872 46.9286 694.08C55.1846 708.288 67.8566 715.392 84.9446 715.392C95.5046 715.392 103.857 712.896 110.001 707.904C116.337 702.912 119.505 696 119.505 687.168C119.505 676.224 116.049 666.912 109.137 659.232C102.417 651.36 91.8566 642.624 77.4566 633.024C65.9366 625.344 56.7206 618.624 49.8086 612.864C42.8966 607.104 37.2326 600.48 32.8166 592.992C28.4006 585.312 26.1926 576.48 26.1926 566.496C26.1926 554.4 29.4566 544.32 35.9846 536.256C42.5126 528 51.1526 521.952 61.9046 518.112C72.8486 514.08 84.7526 512.064 97.6166 512.064ZM345.09 688.608C345.09 697.44 346.242 703.872 348.546 707.904C351.042 711.936 355.266 713.952 361.218 713.952V720C355.266 719.424 349.314 719.136 343.362 719.136C323.394 719.136 306.69 720.48 293.25 723.168V702.432C284.61 716.832 269.346 724.032 247.458 724.032C232.098 724.032 221.25 720.192 214.914 712.512C212.034 709.056 209.922 704.448 208.578 698.688C207.234 692.736 206.562 684.96 206.562 675.36V601.92C206.562 593.088 205.314 586.656 202.818 582.624C200.514 578.592 196.386 576.576 190.434 576.576V570.528C196.386 571.104 202.338 571.392 208.29 571.392C228.258 571.392 244.962 570.048 258.402 567.36V690.912C258.402 697.056 259.458 701.664 261.57 704.736C263.874 707.616 267.522 709.056 272.514 709.056C278.082 709.056 282.882 707.136 286.914 703.296C291.138 699.264 293.25 694.272 293.25 688.32V601.92C293.25 593.088 292.002 586.656 289.506 582.624C287.202 578.592 283.074 576.576 277.122 576.576V570.528C283.074 571.104 289.026 571.392 294.978 571.392C314.946 571.392 331.65 570.048 345.09 567.36V688.608ZM515.03 599.616C510.998 599.616 507.446 598.272 504.374 595.584C501.494 592.704 500.054 588.768 500.054 583.776C500.054 579.168 501.398 574.176 504.086 568.8C495.638 572.256 489.398 577.152 485.366 583.488C492.47 590.976 496.022 600.672 496.022 612.576C496.022 627.744 490.358 639.264 479.03 647.136C467.894 654.816 452.918 658.656 434.102 658.656C430.454 658.656 427.766 658.56 426.038 658.368C421.046 661.824 418.55 665.856 418.55 670.464C418.55 676.608 422.006 679.68 428.918 679.68H456.854C476.438 679.68 491.702 683.04 502.646 689.76C513.782 696.288 519.35 706.56 519.35 720.576C519.35 730.56 516.086 739.584 509.558 747.648C503.222 755.712 493.334 762.144 479.894 766.944C466.646 771.744 450.038 774.144 430.07 774.144C410.294 774.144 394.742 771.936 383.414 767.52C372.086 763.104 366.422 756.864 366.422 748.8C366.422 743.232 369.206 738.144 374.774 733.536C380.342 728.928 388.79 725.28 400.118 722.592L402.998 727.2C397.814 733.536 395.222 739.68 395.222 745.632C395.222 753.12 398.582 758.88 405.302 762.912C412.214 767.136 421.814 769.248 434.102 769.248C446.774 769.248 456.47 766.656 463.19 761.472C470.102 756.48 473.558 749.76 473.558 741.312C473.558 735.36 471.254 730.56 466.646 726.912C462.23 723.456 454.358 721.728 443.03 721.728H427.478C414.422 721.728 404.438 719.232 397.526 714.24C390.614 709.248 387.158 702.528 387.158 694.08C387.158 686.4 389.846 679.68 395.222 673.92C400.79 668.16 408.758 662.784 419.126 657.792C404.534 655.872 393.014 651.168 384.566 643.68C376.31 636 372.182 625.632 372.182 612.576C372.182 597.408 377.75 585.984 388.886 578.304C400.214 570.432 415.286 566.496 434.102 566.496C454.262 566.496 469.814 570.72 480.758 579.168C484.406 574.176 488.822 570.24 494.006 567.36C499.19 564.48 504.662 563.04 510.422 563.04C516.758 563.04 521.654 564.864 525.11 568.512C528.566 571.968 530.294 576.48 530.294 582.048C530.294 587.424 528.854 591.744 525.974 595.008C523.094 598.08 519.446 599.616 515.03 599.616ZM434.102 653.472C437.942 653.472 440.822 650.4 442.742 644.256C444.854 637.92 445.91 627.36 445.91 612.576C445.91 597.792 444.854 587.328 442.742 581.184C440.822 574.848 437.942 571.68 434.102 571.68C430.262 571.68 427.286 574.848 425.174 581.184C423.254 587.328 422.294 597.792 422.294 612.576C422.294 627.36 423.254 637.92 425.174 644.256C427.286 650.4 430.262 653.472 434.102 653.472ZM571.347 722.016C559.059 722.016 549.747 718.752 543.411 712.224C537.267 705.504 534.195 697.152 534.195 687.168C534.195 678.528 536.403 671.424 540.819 665.856C545.427 660.096 550.803 655.68 556.947 652.608C563.091 649.536 571.059 646.368 580.851 643.104C591.219 639.648 598.803 636.48 603.603 633.6C608.403 630.72 610.803 626.688 610.803 621.504V595.872C610.803 589.728 609.267 584.256 606.195 579.456C603.123 574.656 597.843 572.256 590.355 572.256C584.403 572.256 579.027 573.888 574.227 577.152C580.755 579.456 585.555 582.912 588.627 587.52C591.891 591.936 593.523 596.928 593.523 602.496C593.523 609.984 590.835 616.032 585.459 620.64C580.275 625.056 573.939 627.264 566.451 627.264C558.963 627.264 553.011 624.96 548.595 620.352C544.371 615.552 542.259 609.504 542.259 602.208C542.259 596.448 543.699 591.456 546.579 587.232C549.459 583.008 553.971 579.168 560.115 575.712C570.867 569.568 586.227 566.496 606.195 566.496C616.755 566.496 625.875 567.552 633.555 569.664C641.235 571.584 647.763 575.328 653.139 580.896C656.979 584.928 659.475 590.016 660.627 596.16C661.971 602.112 662.643 610.464 662.643 621.216V698.4C662.643 703.2 662.931 706.464 663.507 708.192C664.275 709.92 665.523 710.784 667.251 710.784C668.595 710.784 670.035 710.4 671.571 709.632C673.107 708.672 674.547 707.616 675.891 706.464L678.771 711.36C670.515 718.464 658.707 722.016 643.347 722.016C631.827 722.016 623.763 720.096 619.155 716.256C614.547 712.224 612.051 706.848 611.667 700.128C602.643 714.72 589.203 722.016 571.347 722.016ZM600.147 698.976C604.179 698.976 607.731 697.344 610.803 694.08V633.312C609.075 636.192 605.907 639.936 601.299 644.544C596.115 649.536 592.179 654.432 589.491 659.232C586.803 663.84 585.459 670.176 585.459 678.24C585.459 692.064 590.355 698.976 600.147 698.976ZM792.027 566.496C801.435 566.496 808.155 569.376 812.187 575.136C816.411 580.896 818.523 587.712 818.523 595.584C818.523 604.224 816.027 611.136 811.035 616.32C806.235 621.312 799.899 623.808 792.027 623.808C783.771 623.808 777.435 621.984 773.019 618.336C768.603 614.496 766.395 609.408 766.395 603.072C766.395 591.744 771.291 582.816 781.083 576.288C777.627 576.288 774.555 576.96 771.867 578.304C767.067 580.416 763.035 583.872 759.771 588.672C756.507 593.28 754.875 598.368 754.875 603.936V690.336C754.875 699.36 756.699 705.6 760.347 709.056C764.187 712.32 770.619 713.952 779.643 713.952V720C777.147 720 775.035 719.904 773.307 719.712C753.147 719.136 739.707 718.848 732.987 718.848C727.035 718.848 713.691 719.136 692.955 719.712C691.419 719.904 689.403 720 686.907 720V713.952C692.859 713.952 696.987 712.512 699.291 709.632C701.787 706.56 703.035 701.088 703.035 693.216V601.92C703.035 593.088 701.787 586.656 699.291 582.624C696.987 578.592 692.859 576.576 686.907 576.576V570.528C693.051 571.104 699.003 571.392 704.763 571.392C724.731 571.392 741.435 570.048 754.875 567.36V588.096C762.171 573.696 774.555 566.496 792.027 566.496ZM906.204 613.44H973.02V622.08H906.204V689.76H895.836V622.08H828.732V613.44H895.836V545.472H906.204V613.44Z" fill="white"/>
<path d="M166.819 849C165.592 850.813 164.365 852.12 163.139 852.92C161.912 853.72 160.285 854.12 158.259 854.12C156.072 854.12 154.259 853.48 152.819 852.2C151.432 850.92 150.392 848.68 149.699 845.48L147.939 837.48C147.299 834.707 146.685 832.573 146.099 831.08C145.565 829.587 144.739 828.387 143.619 827.48C142.499 826.573 140.925 826.12 138.899 826.12H131.299V844.52C131.299 846.547 131.459 848.013 131.779 848.92C132.099 849.827 132.685 850.44 133.539 850.76C134.445 851.08 135.859 851.293 137.779 851.4V853C135.325 852.84 131.939 852.76 127.619 852.76C123.032 852.76 119.619 852.84 117.379 853V851.4C119.299 851.293 120.685 851.08 121.539 850.76C122.445 850.44 123.059 849.827 123.379 848.92C123.699 848.013 123.859 846.547 123.859 844.52V804.84C123.859 802.813 123.699 801.347 123.379 800.44C123.059 799.533 122.445 798.92 121.539 798.6C120.685 798.28 119.299 798.067 117.379 797.96V796.36C119.619 796.52 122.872 796.6 127.139 796.6L135.779 796.52C136.792 796.467 137.939 796.44 139.219 796.44C145.405 796.44 150.152 797.747 153.459 800.36C156.819 802.92 158.499 806.253 158.499 810.36C158.499 812.44 157.992 814.547 156.979 816.68C156.019 818.76 154.365 820.653 152.019 822.36C149.725 824.013 146.712 825.133 142.979 825.72L143.939 825.88C147.459 826.467 150.019 827.533 151.619 829.08C153.219 830.627 154.392 833.08 155.139 836.44L157.139 844.6C157.672 847.053 158.232 848.76 158.819 849.72C159.405 850.68 160.205 851.16 161.219 851.16C162.125 851.16 162.872 850.92 163.459 850.44C164.099 849.96 164.819 849.187 165.619 848.12L166.819 849ZM137.219 797.96C135.565 797.96 134.312 798.147 133.459 798.52C132.659 798.893 132.099 799.56 131.779 800.52C131.459 801.48 131.299 802.92 131.299 804.84V824.52H136.659C141.939 824.52 145.565 823.347 147.539 821C149.512 818.653 150.499 815.4 150.499 811.24C150.499 806.867 149.459 803.56 147.379 801.32C145.299 799.08 141.912 797.96 137.219 797.96ZM230.614 842.76C230.614 845.8 230.8 849.213 231.174 853C227.547 852.84 221.44 852.76 212.854 852.76C202.614 852.76 194.88 852.84 189.654 853V851.4C191.574 851.293 192.96 851.08 193.814 850.76C194.72 850.44 195.334 849.827 195.654 848.92C195.974 848.013 196.134 846.547 196.134 844.52V804.84C196.134 802.813 195.974 801.347 195.654 800.44C195.334 799.533 194.72 798.92 193.814 798.6C192.96 798.28 191.574 798.067 189.654 797.96V796.36C194.88 796.52 202.614 796.6 212.854 796.6C220.694 796.6 226.267 796.52 229.574 796.36C229.2 799.88 229.014 803.027 229.014 805.8C229.014 807.88 229.094 809.533 229.254 810.76H227.414C227.04 807.293 226.56 804.733 225.974 803.08C225.387 801.373 224.4 800.147 223.014 799.4C221.627 798.6 219.52 798.2 216.694 798.2H210.054C208.134 798.2 206.72 798.36 205.814 798.68C204.96 798.947 204.374 799.533 204.054 800.44C203.734 801.347 203.574 802.813 203.574 804.84V823.72H208.854C210.72 823.72 212.16 823.293 213.174 822.44C214.187 821.533 214.854 820.493 215.174 819.32C215.547 818.093 215.84 816.573 216.054 814.76L216.294 813.16H218.134C217.974 815.4 217.894 817.907 217.894 820.68V824.52C217.894 827.24 218.054 831.027 218.374 835.88H216.534C216.48 835.507 216.32 834.227 216.054 832.04C215.787 829.8 215.04 828.12 213.814 827C212.64 825.88 210.987 825.32 208.854 825.32H203.574V844.52C203.574 846.547 203.734 848.013 204.054 848.92C204.374 849.827 204.96 850.44 205.814 850.76C206.72 851.027 208.134 851.16 210.054 851.16H215.894C219.2 851.16 221.707 850.733 223.414 849.88C225.174 848.973 226.454 847.56 227.254 845.64C228.054 843.667 228.64 840.787 229.014 837H230.854C230.694 838.44 230.614 840.36 230.614 842.76ZM275.924 795.48C278.27 795.48 280.11 795.747 281.444 796.28C282.83 796.76 284.244 797.48 285.684 798.44C286.857 799.187 287.764 799.56 288.404 799.56C288.884 799.56 289.257 799.293 289.524 798.76C289.79 798.173 290.004 797.267 290.164 796.04H292.004C291.737 799.133 291.604 804.573 291.604 812.36H289.764C289.444 808.04 288.19 804.413 286.004 801.48C283.87 798.493 280.75 797 276.644 797C273.764 797 271.417 797.88 269.604 799.64C267.79 801.347 266.884 803.56 266.884 806.28C266.884 808.307 267.337 810.067 268.244 811.56C269.204 813.053 270.404 814.333 271.844 815.4C273.284 816.467 275.337 817.827 278.004 819.48L280.324 820.92C283.684 823 286.324 824.84 288.244 826.44C290.217 827.987 291.79 829.773 292.964 831.8C294.137 833.827 294.724 836.2 294.724 838.92C294.724 843.773 293.124 847.533 289.924 850.2C286.724 852.813 282.67 854.12 277.764 854.12C275.204 854.12 273.097 853.853 271.444 853.32C269.844 852.787 268.297 852.067 266.804 851.16C265.63 850.413 264.724 850.04 264.084 850.04C263.604 850.04 263.23 850.333 262.964 850.92C262.697 851.453 262.484 852.333 262.324 853.56H260.484C260.697 850.627 260.804 844.227 260.804 834.36H262.644C263.017 839.747 264.35 844.12 266.644 847.48C268.937 850.84 272.457 852.52 277.204 852.52C280.084 852.52 282.537 851.64 284.564 849.88C286.59 848.067 287.604 845.4 287.604 841.88C287.604 838.893 286.59 836.36 284.564 834.28C282.59 832.2 279.444 829.853 275.124 827.24C271.977 825.32 269.417 823.613 267.444 822.12C265.524 820.627 263.95 818.84 262.724 816.76C261.497 814.627 260.884 812.147 260.884 809.32C260.884 804.84 262.324 801.427 265.204 799.08C268.084 796.68 271.657 795.48 275.924 795.48ZM342.807 797.96C340.887 798.067 339.474 798.28 338.567 798.6C337.714 798.92 337.127 799.533 336.807 800.44C336.487 801.347 336.327 802.813 336.327 804.84V844.52C336.327 846.547 336.487 848.013 336.807 848.92C337.127 849.827 337.714 850.44 338.567 850.76C339.474 851.08 340.887 851.293 342.807 851.4V853C340.354 852.84 336.967 852.76 332.647 852.76C328.06 852.76 324.647 852.84 322.407 853V851.4C324.327 851.293 325.714 851.08 326.567 850.76C327.474 850.44 328.087 849.827 328.407 848.92C328.727 848.013 328.887 846.547 328.887 844.52V804.84C328.887 802.813 328.727 801.347 328.407 800.44C328.087 799.533 327.474 798.92 326.567 798.6C325.714 798.28 324.327 798.067 322.407 797.96V796.36C324.647 796.52 328.06 796.6 332.647 796.6C336.914 796.6 340.3 796.52 342.807 796.36V797.96ZM420.156 797.96C418.29 798.067 416.903 798.36 415.996 798.84C415.09 799.267 414.476 800.013 414.156 801.08C413.836 802.093 413.676 803.613 413.676 805.64V853.4H411.836L378.236 801.48V843.72C378.236 845.8 378.396 847.347 378.716 848.36C379.09 849.373 379.783 850.12 380.796 850.6C381.81 851.027 383.383 851.293 385.516 851.4V853C383.596 852.84 380.876 852.76 377.356 852.76C374.156 852.76 371.676 852.84 369.916 853V851.4C371.783 851.293 373.17 851.027 374.076 850.6C374.983 850.12 375.596 849.373 375.916 848.36C376.236 847.293 376.396 845.747 376.396 843.72V804.84C376.396 802.813 376.236 801.347 375.916 800.44C375.596 799.533 374.983 798.92 374.076 798.6C373.223 798.28 371.836 798.067 369.916 797.96V796.36C371.676 796.52 374.156 796.6 377.356 796.6C379.756 796.6 381.836 796.52 383.596 796.36L411.836 839.88V805.64C411.836 803.56 411.65 802.013 411.276 801C410.956 799.987 410.29 799.267 409.276 798.84C408.263 798.36 406.69 798.067 404.556 797.96V796.36C406.476 796.52 409.196 796.6 412.716 796.6C415.916 796.6 418.396 796.52 420.156 796.36V797.96ZM513.442 795.24C516.642 795.24 519.362 795.693 521.602 796.6C523.842 797.507 526.029 798.787 528.162 800.44C528.749 800.92 529.256 801.16 529.682 801.16C530.749 801.16 531.442 799.56 531.762 796.36H533.602C533.389 799.827 533.282 805.96 533.282 814.76H531.442C530.856 811.293 530.322 808.813 529.842 807.32C529.362 805.773 528.562 804.307 527.442 802.92C525.842 800.84 523.789 799.293 521.282 798.28C518.829 797.213 516.162 796.68 513.282 796.68C509.816 796.68 506.776 797.827 504.162 800.12C501.602 802.413 499.602 805.693 498.162 809.96C496.722 814.173 496.002 819.133 496.002 824.84C496.002 830.653 496.776 835.64 498.322 839.8C499.869 843.96 502.002 847.133 504.722 849.32C507.496 851.453 510.616 852.52 514.082 852.52C516.749 852.52 519.336 852.013 521.842 851C524.349 849.987 526.322 848.467 527.762 846.44C528.829 844.947 529.602 843.347 530.082 841.64C530.562 839.933 531.016 837.32 531.442 833.8H533.282C533.282 842.973 533.389 849.373 533.602 853H531.762C531.602 851.293 531.362 850.093 531.042 849.4C530.776 848.653 530.376 848.28 529.842 848.28C529.416 848.28 528.856 848.493 528.162 848.92C525.762 850.627 523.469 851.933 521.282 852.84C519.096 853.693 516.456 854.12 513.362 854.12C508.296 854.12 503.842 852.973 500.002 850.68C496.216 848.387 493.256 845.08 491.122 840.76C489.042 836.387 488.002 831.187 488.002 825.16C488.002 819.293 489.069 814.093 491.202 809.56C493.389 805.027 496.402 801.507 500.242 799C504.136 796.493 508.536 795.24 513.442 795.24ZM612.041 849C610.814 850.813 609.587 852.12 608.361 852.92C607.134 853.72 605.507 854.12 603.481 854.12C601.294 854.12 599.481 853.48 598.041 852.2C596.654 850.92 595.614 848.68 594.921 845.48L593.161 837.48C592.521 834.707 591.907 832.573 591.321 831.08C590.787 829.587 589.961 828.387 588.841 827.48C587.721 826.573 586.147 826.12 584.121 826.12H576.521V844.52C576.521 846.547 576.681 848.013 577.001 848.92C577.321 849.827 577.907 850.44 578.761 850.76C579.667 851.08 581.081 851.293 583.001 851.4V853C580.547 852.84 577.161 852.76 572.841 852.76C568.254 852.76 564.841 852.84 562.601 853V851.4C564.521 851.293 565.907 851.08 566.761 850.76C567.667 850.44 568.281 849.827 568.601 848.92C568.921 848.013 569.081 846.547 569.081 844.52V804.84C569.081 802.813 568.921 801.347 568.601 800.44C568.281 799.533 567.667 798.92 566.761 798.6C565.907 798.28 564.521 798.067 562.601 797.96V796.36C564.841 796.52 568.094 796.6 572.361 796.6L581.001 796.52C582.014 796.467 583.161 796.44 584.441 796.44C590.627 796.44 595.374 797.747 598.681 800.36C602.041 802.92 603.721 806.253 603.721 810.36C603.721 812.44 603.214 814.547 602.201 816.68C601.241 818.76 599.587 820.653 597.241 822.36C594.947 824.013 591.934 825.133 588.201 825.72L589.161 825.88C592.681 826.467 595.241 827.533 596.841 829.08C598.441 830.627 599.614 833.08 600.361 836.44L602.361 844.6C602.894 847.053 603.454 848.76 604.041 849.72C604.627 850.68 605.427 851.16 606.441 851.16C607.347 851.16 608.094 850.92 608.681 850.44C609.321 849.96 610.041 849.187 610.841 848.12L612.041 849ZM582.441 797.96C580.787 797.96 579.534 798.147 578.681 798.52C577.881 798.893 577.321 799.56 577.001 800.52C576.681 801.48 576.521 802.92 576.521 804.84V824.52H581.881C587.161 824.52 590.787 823.347 592.761 821C594.734 818.653 595.721 815.4 595.721 811.24C595.721 806.867 594.681 803.56 592.601 801.32C590.521 799.08 587.134 797.96 582.441 797.96ZM676.876 846.28C678.156 849.587 679.996 851.293 682.396 851.4V853C680.262 852.84 677.409 852.76 673.836 852.76C669.249 852.76 665.836 852.84 663.596 853V851.4C665.622 851.293 667.062 851.053 667.916 850.68C668.822 850.253 669.276 849.507 669.276 848.44C669.276 847.533 668.956 846.28 668.316 844.68L663.436 831.56H644.076L640.796 840.04C639.729 842.92 639.196 845.107 639.196 846.6C639.196 848.253 639.756 849.453 640.876 850.2C642.049 850.947 643.809 851.347 646.156 851.4V853C643.116 852.84 640.049 852.76 636.956 852.76C634.556 852.76 632.556 852.84 630.956 853V851.4C633.622 850.76 635.729 848.44 637.276 844.44L656.076 795.96H657.356L676.876 846.28ZM662.796 829.96L653.836 806.04L644.716 829.96H662.796ZM744.024 796.36C743.65 800.147 743.464 803.56 743.464 806.6C743.464 809.267 743.544 811.453 743.704 813.16H741.864C741.437 809.053 740.904 806.013 740.264 804.04C739.624 802.013 738.504 800.547 736.904 799.64C735.304 798.68 732.85 798.2 729.544 798.2H724.504C722.584 798.2 721.17 798.36 720.264 798.68C719.41 798.947 718.824 799.533 718.504 800.44C718.184 801.347 718.024 802.813 718.024 804.84V824.52H723.864C725.73 824.52 727.17 824.093 728.184 823.24C729.197 822.333 729.864 821.293 730.184 820.12C730.557 818.893 730.85 817.373 731.064 815.56L731.304 813.96H733.144C732.984 816.2 732.904 818.707 732.904 821.48V825.32C732.904 828.04 733.064 831.827 733.384 836.68H731.544C731.49 836.307 731.33 835.027 731.064 832.84C730.797 830.6 730.05 828.92 728.824 827.8C727.65 826.68 725.997 826.12 723.864 826.12H718.024V844.52C718.024 846.547 718.237 848.013 718.664 848.92C719.09 849.827 719.837 850.44 720.904 850.76C721.97 851.08 723.704 851.293 726.104 851.4V853C723.33 852.84 719.41 852.76 714.344 852.76C709.757 852.76 706.344 852.84 704.104 853V851.4C706.024 851.293 707.41 851.08 708.264 850.76C709.17 850.44 709.784 849.827 710.104 848.92C710.424 848.013 710.584 846.547 710.584 844.52V804.84C710.584 802.813 710.424 801.347 710.104 800.44C709.784 799.533 709.17 798.92 708.264 798.6C707.41 798.28 706.024 798.067 704.104 797.96V796.36C709.33 796.52 717.064 796.6 727.304 796.6C735.144 796.6 740.717 796.52 744.024 796.36ZM814.051 796.36C813.677 800.147 813.491 803.56 813.491 806.6C813.491 809.267 813.571 811.453 813.731 813.16H811.891C811.464 809.053 810.931 806.013 810.291 804.04C809.651 802.013 808.531 800.547 806.931 799.64C805.331 798.68 802.877 798.2 799.571 798.2H795.251V843.72C795.251 845.96 795.464 847.587 795.891 848.6C796.317 849.613 797.064 850.307 798.131 850.68C799.197 851.053 800.931 851.293 803.331 851.4V853C800.557 852.84 796.637 852.76 791.571 852.76C786.237 852.76 782.291 852.84 779.731 853V851.4C782.131 851.293 783.864 851.053 784.931 850.68C785.997 850.307 786.744 849.613 787.171 848.6C787.597 847.587 787.811 845.96 787.811 843.72V798.2H783.491C780.184 798.2 777.731 798.68 776.131 799.64C774.531 800.547 773.411 802.013 772.771 804.04C772.131 806.013 771.597 809.053 771.171 813.16H769.331C769.491 811.453 769.571 809.267 769.571 806.6C769.571 803.56 769.384 800.147 769.011 796.36C773.437 796.52 780.957 796.6 791.571 796.6C802.131 796.6 809.624 796.52 814.051 796.36ZM857.258 795.48C859.605 795.48 861.445 795.747 862.778 796.28C864.165 796.76 865.578 797.48 867.018 798.44C868.191 799.187 869.098 799.56 869.738 799.56C870.218 799.56 870.591 799.293 870.858 798.76C871.125 798.173 871.338 797.267 871.498 796.04H873.338C873.071 799.133 872.938 804.573 872.938 812.36H871.098C870.778 808.04 869.525 804.413 867.338 801.48C865.205 798.493 862.085 797 857.978 797C855.098 797 852.751 797.88 850.938 799.64C849.125 801.347 848.218 803.56 848.218 806.28C848.218 808.307 848.671 810.067 849.578 811.56C850.538 813.053 851.738 814.333 853.178 815.4C854.618 816.467 856.671 817.827 859.338 819.48L861.658 820.92C865.018 823 867.658 824.84 869.578 826.44C871.551 827.987 873.125 829.773 874.298 831.8C875.471 833.827 876.058 836.2 876.058 838.92C876.058 843.773 874.458 847.533 871.258 850.2C868.058 852.813 864.005 854.12 859.098 854.12C856.538 854.12 854.431 853.853 852.778 853.32C851.178 852.787 849.631 852.067 848.138 851.16C846.965 850.413 846.058 850.04 845.418 850.04C844.938 850.04 844.565 850.333 844.298 850.92C844.031 851.453 843.818 852.333 843.658 853.56H841.818C842.031 850.627 842.138 844.227 842.138 834.36H843.978C844.351 839.747 845.685 844.12 847.978 847.48C850.271 850.84 853.791 852.52 858.538 852.52C861.418 852.52 863.871 851.64 865.898 849.88C867.925 848.067 868.938 845.4 868.938 841.88C868.938 838.893 867.925 836.36 865.898 834.28C863.925 832.2 860.778 829.853 856.458 827.24C853.311 825.32 850.751 823.613 848.778 822.12C846.858 820.627 845.285 818.84 844.058 816.76C842.831 814.627 842.218 812.147 842.218 809.32C842.218 804.84 843.658 801.427 846.538 799.08C849.418 796.68 852.991 795.48 857.258 795.48Z" fill="white"/>
<g filter="url(#filter0_d)">
<path d="M613.76 459.723H380.239C372.23 459.723 364.768 455.414 360.764 448.479L244.004 246.244C239.998 239.308 239.998 230.691 244.004 223.755L360.764 21.5203C364.768 14.5847 372.231 10.2758 380.239 10.2758H613.759C621.768 10.2758 629.23 14.5847 633.235 21.5203L683.024 107.758C685.094 111.344 683.866 115.928 680.28 117.998C676.697 120.069 672.111 118.841 670.04 115.255L620.252 29.0166C618.916 26.7048 616.428 25.2685 613.759 25.2685H380.239C377.57 25.2685 375.082 26.7048 373.747 29.0166L256.987 231.251C255.653 233.563 255.653 236.436 256.987 238.748L373.747 440.982C375.082 443.294 377.57 444.73 380.239 444.73H613.759C616.428 444.73 618.916 443.294 620.252 440.982L737.011 238.748C738.346 236.436 738.346 233.563 737.011 231.251L685.477 141.993C683.407 138.407 684.635 133.823 688.22 131.753C691.805 129.682 696.392 130.91 698.461 134.496L749.994 223.755C754 230.691 754 239.308 749.994 246.244L633.236 448.479C629.231 455.415 621.768 459.723 613.76 459.723ZM560.138 382.951C555.729 382.951 552.142 379.363 552.142 374.954C552.142 370.546 555.729 366.958 560.138 366.958C564.547 366.958 568.134 370.546 568.134 374.954C568.134 379.363 564.547 382.951 560.138 382.951ZM497 369.236C493.111 369.236 489.223 368.236 485.756 366.233L388.971 310.354C382.035 306.35 377.726 298.887 377.726 290.878V179.122C377.726 171.113 382.035 163.65 388.971 159.645L485.755 103.767C492.691 99.7622 501.309 99.7632 508.244 103.767L605.029 159.646C611.965 163.65 616.273 171.114 616.273 179.122V290.878C616.273 298.887 611.965 306.35 605.029 310.354L571.856 329.506C568.272 331.577 563.685 330.349 561.616 326.763C559.546 323.178 560.774 318.593 564.36 316.523L597.533 297.37C599.844 296.036 601.281 293.548 601.281 290.878V183.449L504.496 239.327V351.085L540.794 330.128C544.378 328.057 548.963 329.286 551.034 332.872C553.104 336.457 551.876 341.042 548.291 343.112L508.244 366.233C504.777 368.236 500.889 369.236 497 369.236V369.236ZM392.719 183.45V290.878C392.719 293.548 394.156 296.036 396.467 297.37L489.504 351.085V239.327L454.279 218.99C450.694 216.92 449.466 212.335 451.536 208.75C453.605 205.165 458.189 203.936 461.776 206.007L497 226.344L593.784 170.465L500.749 116.75C498.438 115.416 495.565 115.415 493.252 116.75L400.216 170.465L437.163 191.796C440.748 193.866 441.976 198.451 439.906 202.037C437.836 205.622 433.249 206.85 429.666 204.78L392.719 183.45ZM414.079 366.485C409.67 366.485 406.083 362.897 406.083 358.488C406.083 354.08 409.67 350.492 414.079 350.492C418.488 350.492 422.075 354.08 422.075 358.488C422.075 362.897 418.488 366.485 414.079 366.485ZM590.123 364.959C585.714 364.959 582.127 361.372 582.127 356.963C582.127 352.554 585.714 348.967 590.123 348.967C594.532 348.967 598.119 352.554 598.119 356.963C598.119 361.372 594.532 364.959 590.123 364.959Z" fill="#E6C5A9"/>
</g>
<defs>
<filter id="filter0_d" x="231" y="0.275757" width="551.999" height="489.447" filterUnits="userSpaceOnUse" color-interpolation-filters="sRGB">
<feFlood flood-opacity="0" result="BackgroundImageFix"/>
<feColorMatrix in="SourceAlpha" type="matrix" values="0 0 0 0 0 0 0 0 0 0 0 0 0 0 0 0 0 0 127 0"/>
<feOffset dx="10" dy="10"/>
<feGaussianBlur stdDeviation="10"/>
<feColorMatrix type="matrix" values="0 0 0 0 0 0 0 0 0 0 0 0 0 0 0 0 0 0 0.25 0"/>
<feBlend mode="normal" in2="BackgroundImageFix" result="effect1_dropShadow"/>
<feBlend mode="normal" in="SourceGraphic" in2="effect1_dropShadow" result="shape"/>
</filter>
</defs>
</svg>
